<svg width="24" height="28" viewBox="0 0 24 28" fill="none" xmlns="http://www.w3.org/2000/svg">
<path d="M7.86389 13.2541C8.23027 13.2541 8.58166 13.1086 8.84073 12.8495C9.09981 12.5904 9.24535 12.2391 9.24535 11.8727C9.24535 11.5063 9.09981 11.1549 8.84073 10.8958C8.58166 10.6368 8.23027 10.4912 7.86389 10.4912C7.4975 10.4912 7.14612 10.6368 6.88704 10.8958C6.62797 11.1549 6.48242 11.5063 6.48242 11.8727C6.48242 12.2391 6.62797 12.5904 6.88704 12.8495C7.14612 13.1086 7.4975 13.2541 7.86389 13.2541ZM10.6268 11.8727C10.6268 11.5063 10.7724 11.1549 11.0314 10.8958C11.2905 10.6368 11.6419 10.4912 12.0083 10.4912H16.1527C16.5191 10.4912 16.8704 10.6368 17.1295 10.8958C17.3886 11.1549 17.5341 11.5063 17.5341 11.8727C17.5341 12.2391 17.3886 12.5904 17.1295 12.8495C16.8704 13.1086 16.5191 13.2541 16.1527 13.2541H12.0083C11.6419 13.2541 11.2905 13.1086 11.0314 12.8495C10.7724 12.5904 10.6268 12.2391 10.6268 11.8727ZM12.0083 14.6356C11.6419 14.6356 11.2905 14.7812 11.0314 15.0402C10.7724 15.2993 10.6268 15.6507 10.6268 16.0171C10.6268 16.3835 10.7724 16.7348 11.0314 16.9939C11.2905 17.253 11.6419 17.3985 12.0083 17.3985H16.1527C16.5191 17.3985 16.8704 17.253 17.1295 16.9939C17.3886 16.7348 17.5341 16.3835 17.5341 16.0171C17.5341 15.6507 17.3886 15.2993 17.1295 15.0402C16.8704 14.7812 16.5191 14.6356 16.1527 14.6356H12.0083ZM12.0083 18.78C11.6419 18.78 11.2905 18.9256 11.0314 19.1846C10.7724 19.4437 10.6268 19.7951 10.6268 20.1615C10.6268 20.5279 10.7724 20.8792 11.0314 21.1383C11.2905 21.3974 11.6419 21.5429 12.0083 21.5429H16.1527C16.5191 21.5429 16.8704 21.3974 17.1295 21.1383C17.3886 20.8792 17.5341 20.5279 17.5341 20.1615C17.5341 19.7951 17.3886 19.4437 17.1295 19.1846C16.8704 18.9256 16.5191 18.78 16.1527 18.78H12.0083ZM9.24535 16.0171C9.24535 16.3835 9.09981 16.7348 8.84073 16.9939C8.58166 17.253 8.23027 17.3985 7.86389 17.3985C7.4975 17.3985 7.14612 17.253 6.88704 16.9939C6.62797 16.7348 6.48242 16.3835 6.48242 16.0171C6.48242 15.6507 6.62797 15.2993 6.88704 15.0402C7.14612 14.7812 7.4975 14.6356 7.86389 14.6356C8.23027 14.6356 8.58166 14.7812 8.84073 15.0402C9.09981 15.2993 9.24535 15.6507 9.24535 16.0171ZM7.86389 21.5429C8.23027 21.5429 8.58166 21.3974 8.84073 21.1383C9.09981 20.8792 9.24535 20.5279 9.24535 20.1615C9.24535 19.7951 9.09981 19.4437 8.84073 19.1846C8.58166 18.9256 8.23027 18.78 7.86389 18.78C7.4975 18.78 7.14612 18.9256 6.88704 19.1846C6.62797 19.4437 6.48242 19.7951 6.48242 20.1615C6.48242 20.5279 6.62797 20.8792 6.88704 21.1383C7.14612 21.3974 7.4975 21.5429 7.86389 21.5429Z" fill="white"/>
<path d="M7.86436 0.129883C7.49797 0.129883 7.14659 0.27543 6.88752 0.534505C6.62844 0.79358 6.48289 1.14496 6.48289 1.51135H3.71996C2.98719 1.51135 2.28443 1.80244 1.76627 2.32059C1.24812 2.83874 0.957031 3.5415 0.957031 4.27428V24.9963C0.957031 25.729 1.24812 26.4318 1.76627 26.9499C2.28443 27.4681 2.98719 27.7592 3.71996 27.7592H20.2975C21.0303 27.7592 21.7331 27.4681 22.2512 26.9499C22.7694 26.4318 23.0605 25.729 23.0605 24.9963V4.27428C23.0605 3.5415 22.7694 2.83874 22.2512 2.32059C21.7331 1.80244 21.0303 1.51135 20.2975 1.51135H17.5346C17.5346 1.14496 17.3891 0.79358 17.13 0.534505C16.8709 0.27543 16.5195 0.129883 16.1532 0.129883H7.86436ZM17.5346 4.27428H20.2975V24.9963H3.71996V4.27428H6.48289V5.65575C6.48289 6.02213 6.62844 6.37351 6.88752 6.63259C7.14659 6.89166 7.49797 7.03721 7.86436 7.03721H16.1532C16.5195 7.03721 16.8709 6.89166 17.13 6.63259C17.3891 6.37351 17.5346 6.02213 17.5346 5.65575V4.27428ZM9.24582 4.27428V2.89281H14.7717V4.27428H9.24582Z" fill="white"/>
</svg>
