<svg width="135" height="48" viewBox="0 0 135 48" fill="none" xmlns="http://www.w3.org/2000/svg">
<rect width="135" height="48" rx="9" fill="#606169" fill-opacity="0.59"/>
<path d="M36.3018 6.14685C35.5447 5.64114 34.6419 6.54398 35.1461 7.30111L36.0461 8.65109C36.4112 9.19846 36.6061 9.84168 36.6061 10.4996C36.6061 11.1576 36.4112 11.8008 36.0461 12.3482L35.1461 13.6982C34.6419 14.4553 35.5461 15.3581 36.3033 14.8524L37.6518 13.9524C38.1992 13.5874 38.8424 13.3925 39.5004 13.3925C40.1583 13.3925 40.8015 13.5874 41.3489 13.9524L42.6989 14.8524C43.456 15.3581 44.3589 14.4553 43.8532 13.6982L42.9532 12.3482C42.5881 11.8008 42.3932 11.1576 42.3932 10.4996C42.3932 9.84168 42.5881 9.19846 42.9532 8.65109L43.8532 7.30111C44.3589 6.54398 43.456 5.64114 42.6975 6.14685L41.3489 7.04683C40.8015 7.41192 40.1583 7.60675 39.5004 7.60675C38.8424 7.60675 38.1992 7.41192 37.6518 7.04683L36.3018 6.14685Z" fill="#141627"/>
<path d="M43.9373 33.4868C44.2433 32.7578 43.3688 32.1368 42.6353 32.4608C41.1691 33.1044 39.5849 33.4354 37.9837 33.4328C31.7061 33.4328 26.6181 28.4467 26.6181 22.2952C26.6158 20.2182 27.2059 18.1836 28.3191 16.4301C28.7451 15.7581 28.2336 14.8281 27.4536 15.0261C21.44 16.5606 17 21.9187 17 28.2922C17 35.8628 23.2626 41.9994 30.9891 41.9994C36.8392 41.9994 41.8492 38.4818 43.9373 33.4868Z" fill="#141627"/>
</svg>
