<svg width="26" height="29" viewBox="0 0 26 29" fill="none" xmlns="http://www.w3.org/2000/svg">
<path d="M24.1051 9.10415L15.8532 1.86998C15.0968 1.19339 14.1175 0.819336 13.1026 0.819336C12.0877 0.819336 11.1084 1.19339 10.352 1.86998L2.10006 9.10415C1.66321 9.49484 1.31461 9.97411 1.07747 10.5101C0.840326 11.046 0.720081 11.6263 0.72474 12.2124V24.2326C0.72474 25.3269 1.15944 26.3763 1.9332 27.1501C2.70697 27.9239 3.75642 28.3586 4.85069 28.3586H21.3545C22.4487 28.3586 23.4982 27.9239 24.272 27.1501C25.0457 26.3763 25.4804 25.3269 25.4804 24.2326V12.1986C25.4831 11.6149 25.3619 11.0372 25.1249 10.5038C24.8878 9.97035 24.5402 9.4933 24.1051 9.10415ZM15.8532 25.6079H10.352V18.7314C10.352 18.3666 10.4969 18.0168 10.7548 17.7589C11.0127 17.5009 11.3625 17.356 11.7273 17.356H14.4779C14.8427 17.356 15.1925 17.5009 15.4504 17.7589C15.7083 18.0168 15.8532 18.3666 15.8532 18.7314V25.6079ZM22.7298 24.2326C22.7298 24.5974 22.5849 24.9472 22.327 25.2051C22.0691 25.463 21.7192 25.6079 21.3545 25.6079H18.6038V18.7314C18.6038 17.6371 18.1691 16.5876 17.3954 15.8139C16.6216 15.0401 15.5722 14.6054 14.4779 14.6054H11.7273C10.633 14.6054 9.58355 15.0401 8.80978 15.8139C8.03602 16.5876 7.60132 17.6371 7.60132 18.7314V25.6079H4.85069C4.48593 25.6079 4.13611 25.463 3.87819 25.2051C3.62027 24.9472 3.47537 24.5974 3.47537 24.2326V12.1986C3.47562 12.0033 3.51745 11.8103 3.59807 11.6325C3.6787 11.4546 3.79628 11.296 3.94298 11.1671L12.1949 3.94671C12.4459 3.72622 12.7685 3.60462 13.1026 3.60462C13.4367 3.60462 13.7593 3.72622 14.0103 3.94671L22.2622 11.1671C22.4089 11.296 22.5265 11.4546 22.6071 11.6325C22.6877 11.8103 22.7295 12.0033 22.7298 12.1986V24.2326Z" fill="white"/>
</svg>
