<svg width="25" height="26" viewBox="0 0 25 26" fill="none" xmlns="http://www.w3.org/2000/svg">
<path fill-rule="evenodd" clip-rule="evenodd" d="M10.8163 0.347081H10.7933C10.662 0.347081 10.5607 0.347081 10.464 0.352839C9.86572 0.389206 9.29008 0.594619 8.80395 0.945201C8.31782 1.29578 7.94118 1.77714 7.7178 2.33331C7.6821 2.42197 7.64986 2.51754 7.60841 2.64304L7.6015 2.66492L7.57156 2.75358C7.56079 2.78633 7.54966 2.81895 7.53817 2.85145C7.35394 3.36039 6.74253 3.78527 6.09542 3.80139L3.99981 3.90502C3.09478 4.01095 2.31987 4.23663 1.6647 4.76975C1.4359 4.95591 1.22679 5.16503 1.04062 5.39382C0.507508 6.05014 0.280675 6.82391 0.174743 7.73009C0.0722656 8.60518 0.0722656 9.7048 0.0722656 11.0692V11.1591C0.0722656 11.4861 0.0722656 11.7923 0.0987486 12.0503C0.127535 12.3358 0.194318 12.6398 0.375093 12.9323C0.577773 13.2574 0.873411 13.5141 1.2237 13.6692C1.22716 15.5299 1.25134 17.409 1.41829 19.0188C1.51617 19.9629 1.66585 20.8484 1.9042 21.6037C2.13794 22.3464 2.48337 23.0499 3.03145 23.5358C3.97909 24.3787 5.17312 24.7506 6.66193 24.9291C8.12425 25.1029 9.99879 25.1029 12.3915 25.1029H12.5089C14.9016 25.1029 16.7761 25.1029 18.2385 24.9279C19.7273 24.7506 20.9213 24.3787 21.8689 23.5358C22.417 23.0499 22.7625 22.3464 22.9973 21.6037C23.2345 20.8484 23.3842 19.9629 23.4821 19.0188C23.6491 17.409 23.6732 15.5299 23.6767 13.6692C24.0266 13.5139 24.3218 13.2572 24.5241 12.9323C24.7061 12.6398 24.7729 12.3358 24.8016 12.0503C24.8281 11.7923 24.8281 11.4861 24.8281 11.1591V11.0692C24.8281 9.7048 24.8281 8.60518 24.7245 7.73009C24.6186 6.82391 24.3929 6.04899 23.8598 5.39382C23.6736 5.16503 23.4645 4.95591 23.2357 4.76975C22.5794 4.23663 21.8056 4.0098 20.8994 3.90387L18.8061 3.80139C18.159 3.78527 17.5476 3.36039 17.3634 2.85145C17.3519 2.81896 17.3407 2.78633 17.33 2.75358L17.2931 2.64189C17.2517 2.51869 17.2206 2.42197 17.1837 2.33216C16.9602 1.7762 16.5835 1.29509 16.0974 0.944719C15.6112 0.59435 15.0357 0.389108 14.4376 0.352839C14.3283 0.347685 14.2188 0.345765 14.1094 0.347081H10.8152H10.8163ZM7.35049 5.52854H17.5511C18.9581 5.52854 19.9437 5.53084 20.6979 5.6195C21.4418 5.70701 21.8482 5.86821 22.1453 6.11002C22.2835 6.22171 22.4078 6.34721 22.5195 6.48423C22.7613 6.7813 22.9225 7.18776 23.01 7.93159C23.0998 8.69384 23.101 9.69213 23.101 11.1234C23.101 11.4987 23.101 11.7164 23.0837 11.8764C23.0808 11.9253 23.0719 11.9736 23.0572 12.0203C23.0491 12.0337 23.0398 12.0464 23.0296 12.0583C22.9888 12.086 22.9447 12.1084 22.8983 12.1251C22.7498 12.1873 22.5414 12.2506 22.1821 12.3577L16.1924 14.1551V13.8764C16.1924 13.082 15.5476 12.4372 14.7531 12.4372H10.1473C9.35283 12.4372 8.70803 13.082 8.70803 13.8764V14.1551L2.71826 12.3589C2.47619 12.2916 2.23722 12.2136 2.00207 12.1251C1.95571 12.1084 1.91162 12.086 1.87081 12.0583L8.70803 14.1551L1.84317 12.0203C1.82838 11.9736 1.81948 11.9253 1.81669 11.8764C1.79984 11.6258 1.79407 11.3745 1.79942 11.1234C1.79942 9.69213 1.80057 8.69384 1.89038 7.93159C1.97789 7.18776 2.13909 6.7813 2.38089 6.48423C2.49253 6.34705 2.61792 6.22165 2.75511 6.11002C3.05218 5.86821 3.45864 5.70701 4.20246 5.6195C4.95666 5.53084 5.94228 5.52854 7.35049 5.52854ZM10.8163 2.07423C10.6517 2.07423 10.6056 2.07423 10.5688 2.07654C10.2968 2.09311 10.0352 2.18651 9.81421 2.34591C9.59327 2.5053 9.42209 2.72413 9.32059 2.97696C9.29158 3.05412 9.2647 3.13206 9.23999 3.2107L9.2066 3.30857L9.16285 3.43869C9.11679 3.56534 9.06382 3.68509 9.00165 3.80139H15.8987C15.8152 3.64386 15.7466 3.47887 15.6938 3.30857L15.6615 3.2107C15.6367 3.13212 15.6098 3.05418 15.5809 2.97696C15.4794 2.72396 15.308 2.50502 15.0868 2.34561C14.8657 2.1862 14.6038 2.09289 14.3316 2.07654C14.2492 2.07365 14.1666 2.07288 14.0841 2.07423H10.8163ZM2.95316 14.2322C2.96122 15.8869 2.99461 17.4758 3.13624 18.8414C3.22835 19.728 3.36192 20.4845 3.55075 21.0844C3.74419 21.6947 3.96757 22.0574 4.17828 22.2451C4.74824 22.7517 5.53468 23.0545 6.86689 23.2123C8.21407 23.3735 9.98612 23.3758 12.4502 23.3758C14.9143 23.3758 16.6852 23.3746 18.0335 23.2134C19.3657 23.0545 20.1521 22.7506 20.7221 22.2451C20.9328 22.0574 21.1562 21.6947 21.3496 21.0844C21.5385 20.4857 21.672 19.728 21.7642 18.8414C21.9058 17.4758 21.9392 15.8857 21.9472 14.2322L16.1924 15.9582V16.3659C16.1924 16.9531 15.8343 17.4827 15.2873 17.7015L14.4813 18.0239C13.1775 18.5454 11.7229 18.5454 10.4191 18.0239L9.61306 17.7015C9.34604 17.5948 9.11711 17.4105 8.9558 17.1724C8.79449 16.9344 8.70819 16.6534 8.70803 16.3659V15.9582L2.95316 14.2311V14.2322ZM10.4352 14.1643V16.1701L11.0604 16.42C11.9528 16.7769 12.9488 16.7769 13.84 16.42L14.4652 16.1701V14.1643H10.4352Z" fill="white"/>
</svg>
