<svg width="26" height="18" viewBox="0 0 26 18" fill="none" xmlns="http://www.w3.org/2000/svg">
<path fill-rule="evenodd" clip-rule="evenodd" d="M8.22656 8.92285C8.22656 7.66022 8.72814 6.44931 9.62095 5.5565C10.5138 4.66369 11.7247 4.16211 12.9873 4.16211C14.2499 4.16211 15.4608 4.66369 16.3537 5.5565C17.2465 6.44931 17.748 7.66022 17.748 8.92285C17.748 10.1855 17.2465 11.3964 16.3537 12.2892C15.4608 13.182 14.2499 13.6836 12.9873 13.6836C11.7247 13.6836 10.5138 13.182 9.62095 12.2892C8.72814 11.3964 8.22656 10.1855 8.22656 8.92285ZM12.9873 6.06641C12.2297 6.06641 11.5032 6.36735 10.9675 6.90304C10.4318 7.43873 10.1309 8.16528 10.1309 8.92285C10.1309 9.68043 10.4318 10.407 10.9675 10.9427C11.5032 11.4784 12.2297 11.7793 12.9873 11.7793C13.7449 11.7793 14.4714 11.4784 15.0071 10.9427C15.5428 10.407 15.8438 9.68043 15.8438 8.92285C15.8438 8.16528 15.5428 7.43873 15.0071 6.90304C14.4714 6.36735 13.7449 6.06641 12.9873 6.06641Z" fill="white"/>
<path fill-rule="evenodd" clip-rule="evenodd" d="M3.24111 7.20391C2.70918 7.9707 2.51367 8.57119 2.51367 8.92285C2.51367 9.27451 2.70918 9.875 3.24111 10.6418C3.75654 11.3819 4.5208 12.1855 5.48818 12.9282C7.42676 14.4161 10.0839 15.5879 12.9873 15.5879C15.8907 15.5879 18.5479 14.4161 20.4864 12.9282C21.4538 12.1855 22.2181 11.3819 22.7335 10.6418C23.2654 9.875 23.4609 9.27451 23.4609 8.92285C23.4609 8.57119 23.2654 7.9707 22.7335 7.20391C22.2181 6.46377 21.4538 5.66016 20.4864 4.91748C18.5479 3.42959 15.8907 2.25781 12.9873 2.25781C10.0839 2.25781 7.42676 3.42959 5.48818 4.91748C4.5208 5.66016 3.75654 6.46377 3.24111 7.20391ZM4.32783 3.40674C6.52539 1.7208 9.57988 0.353516 12.9873 0.353516C16.3947 0.353516 19.4492 1.7208 21.6455 3.40674C22.7462 4.25098 23.6552 5.19297 24.2976 6.11846C24.9222 7.01856 25.3652 8.00498 25.3652 8.92285C25.3652 9.84072 24.9209 10.8271 24.2976 11.7272C23.6552 12.6527 22.7462 13.5935 21.6468 14.439C19.4505 16.1249 16.3947 17.4922 12.9873 17.4922C9.57988 17.4922 6.52539 16.1249 4.3291 14.439C3.22842 13.5947 2.31943 12.6527 1.67705 11.7272C1.05371 10.8271 0.609375 9.84072 0.609375 8.92285C0.609375 8.00498 1.05371 7.01856 1.67705 6.11846C2.31943 5.19297 3.22842 4.25225 4.32783 3.40674Z" fill="white"/>
</svg>
