<svg width="26" height="31" viewBox="0 0 26 31" fill="none" xmlns="http://www.w3.org/2000/svg">
<path d="M20.1073 28.0396H1.95491V6.25663H12.8629L14.5131 4.27637H1.95491C1.51724 4.27637 1.0975 4.485 0.788026 4.85637C0.47855 5.22775 0.304688 5.73143 0.304688 6.25663V28.0396C0.304688 28.5648 0.47855 29.0684 0.788026 29.4398C1.0975 29.8112 1.51724 30.0198 1.95491 30.0198H20.1073C20.545 30.0198 20.9648 29.8112 21.2742 29.4398C21.5837 29.0684 21.7576 28.5648 21.7576 28.0396V13.1876L20.1073 15.1678V28.0396Z" fill="white"/>
<path d="M24.6704 4.1177L21.8898 0.78095C21.7664 0.63246 21.6198 0.514648 21.4584 0.434263C21.297 0.353878 21.1239 0.3125 20.9492 0.3125C20.7744 0.3125 20.6014 0.353878 20.44 0.434263C20.2786 0.514648 20.132 0.63246 20.0086 0.78095L8.69629 14.4349L7.78041 19.1974C7.7414 19.4283 7.7455 19.6666 7.79242 19.8954C7.83935 20.1241 7.92794 20.3375 8.05181 20.5202C8.17569 20.703 8.33177 20.8505 8.50883 20.9522C8.6859 21.0539 8.87954 21.1072 9.07584 21.1084C9.17729 21.1218 9.27967 21.1218 9.38113 21.1084L13.3829 20.0489L24.6704 6.3752C24.7942 6.22712 24.8924 6.05119 24.9593 5.8575C25.0263 5.66381 25.0608 5.45616 25.0608 5.24645C25.0608 5.03674 25.0263 4.82909 24.9593 4.6354C24.8924 4.44171 24.7942 4.26578 24.6704 4.1177ZM12.5248 18.2172L9.50489 19.0192L10.2062 15.425L18.7214 5.13754L21.0482 7.92971L12.5248 18.2172ZM21.9806 6.81086L19.6538 4.01868L20.9327 2.45427L23.276 5.26625L21.9806 6.81086Z" fill="white"/>
</svg>
