<svg width="19" height="22" viewBox="0 0 19 22" fill="none" xmlns="http://www.w3.org/2000/svg">
<path d="M17.6704 4.1177L14.8898 0.78095C14.7664 0.63246 14.6198 0.514648 14.4584 0.434263C14.297 0.353878 14.1239 0.3125 13.9492 0.3125C13.7744 0.3125 13.6014 0.353878 13.44 0.434263C13.2786 0.514648 13.132 0.63246 13.0086 0.78095L1.69629 14.4349L0.780414 19.1974C0.741395 19.4283 0.745497 19.6666 0.792425 19.8954C0.839352 20.1241 0.927939 20.3375 1.05181 20.5202C1.17569 20.703 1.33177 20.8505 1.50883 20.9522C1.6859 21.0539 1.87954 21.1072 2.07584 21.1084C2.17729 21.1218 2.27967 21.1218 2.38113 21.1084L6.38292 20.0489L17.6704 6.3752C17.7942 6.22712 17.8924 6.05119 17.9593 5.8575C18.0263 5.66381 18.0608 5.45616 18.0608 5.24645C18.0608 5.03674 18.0263 4.82909 17.9593 4.6354C17.8924 4.44171 17.7942 4.26578 17.6704 4.1177ZM5.5248 18.2172L2.50489 19.0192L3.20624 15.425L11.7214 5.13754L14.0482 7.92971L5.5248 18.2172ZM14.9806 6.81086L12.6538 4.01868L13.9327 2.45427L16.276 5.26625L14.9806 6.81086Z" fill="white"/>
</svg>
