<svg width="26" height="20" viewBox="0 0 26 20" fill="none" xmlns="http://www.w3.org/2000/svg">
<path d="M2.61007 4.79862C2.61007 4.09516 2.88952 3.4205 3.38695 2.92308C3.88437 2.42566 4.55902 2.14621 5.26249 2.14621H15.8721C16.5756 2.14621 17.2503 2.42566 17.7477 2.92308C18.2451 3.4205 18.5246 4.09516 18.5246 4.79862V15.4083C18.5246 16.1117 18.2451 16.7864 17.7477 17.2838C17.2503 17.7812 16.5756 18.0607 15.8721 18.0607H5.26249C4.55902 18.0607 3.88437 17.7812 3.38695 17.2838C2.88952 16.7864 2.61007 16.1117 2.61007 15.4083V4.79862ZM5.26249 0.37793C4.09005 0.37793 2.96563 0.84368 2.13659 1.67272C1.30755 2.50176 0.841797 3.62618 0.841797 4.79862V15.4083C0.841797 16.5807 1.30755 17.7051 2.13659 18.5342C2.96563 19.3632 4.09005 19.829 5.26249 19.829H15.8721C16.4527 19.829 17.0275 19.7146 17.5639 19.4925C18.1002 19.2703 18.5875 18.9447 18.998 18.5342C19.4085 18.1237 19.7342 17.6363 19.9563 17.1C20.1785 16.5637 20.2928 15.9888 20.2928 15.4083V14.5241L23.4757 16.9113C23.6728 17.0591 23.9071 17.1491 24.1524 17.1712C24.3976 17.1933 24.6443 17.1467 24.8645 17.0365C25.0848 16.9264 25.2701 16.7571 25.3996 16.5476C25.5291 16.3381 25.5977 16.0966 25.5977 15.8503V4.36539C25.5977 4.1191 25.5291 3.87767 25.3996 3.66816C25.2701 3.45865 25.0848 3.28934 24.8645 3.1792C24.6443 3.06905 24.3976 3.02242 24.1524 3.04454C23.9071 3.06666 23.6728 3.15665 23.4757 3.30443L20.2928 5.68276V4.79862C20.2928 4.21809 20.1785 3.64324 19.9563 3.10689C19.7342 2.57055 19.4085 2.08322 18.998 1.67272C18.5875 1.26222 18.1002 0.936595 17.5639 0.714435C17.0275 0.492274 16.4527 0.37793 15.8721 0.37793H5.26249ZM20.2928 7.8931L23.8294 5.24776V14.9662L20.2928 12.3138V7.8931Z" fill="white"/>
</svg>
