<svg width="28" height="29" viewBox="0 0 28 29" fill="none" xmlns="http://www.w3.org/2000/svg">
<path d="M21.4425 13.3611C22.2007 20.3649 25.1772 22.4815 25.1772 22.4815H1.72461C1.72461 22.4815 5.63338 19.702 5.63338 9.97347C5.63338 7.7619 6.45701 5.64093 7.92308 4.07712C9.38916 2.5133 11.3776 1.63477 13.4509 1.63477C13.8904 1.63477 14.3261 1.67424 14.7538 1.75136" stroke="white" stroke-width="2.20483" stroke-linecap="round" stroke-linejoin="round"/>
<path d="M22.5709 9.4523C24.7297 9.4523 26.4796 7.70228 26.4796 5.54354C26.4796 3.38479 24.7297 1.63477 22.5709 1.63477C20.4121 1.63477 18.6621 3.38479 18.6621 5.54354C18.6621 7.70228 20.4121 9.4523 22.5709 9.4523Z" stroke="white" stroke-width="2.20483" stroke-linecap="round" stroke-linejoin="round"/>
<path d="M15.7054 26.3906C15.4763 26.7855 15.1476 27.1134 14.7519 27.3411C14.3563 27.569 13.9079 27.689 13.4513 27.689C12.9948 27.689 12.5463 27.569 12.1507 27.3411C11.7552 27.1134 11.4263 26.7855 11.1973 26.3906" stroke="white" stroke-width="2.20483" stroke-linecap="round" stroke-linejoin="round"/>
</svg>
