<svg width="26" height="26" viewBox="0 0 26 26" fill="none" xmlns="http://www.w3.org/2000/svg">
<path d="M23.575 13.9861C23.373 13.7562 23.2616 13.4606 23.2616 13.1546C23.2616 12.8485 23.373 12.5529 23.575 12.323L25.1877 10.5087C25.3654 10.3105 25.4757 10.0611 25.5029 9.79627C25.5301 9.53144 25.4726 9.26481 25.3389 9.03464L22.819 4.67534C22.6866 4.44543 22.485 4.26319 22.2429 4.1546C22.0009 4.04601 21.7307 4.01661 21.4709 4.07058L19.1023 4.54935C18.8009 4.61163 18.4871 4.56143 18.2202 4.40824C17.9533 4.25505 17.7517 4.00946 17.6534 3.71781L16.8848 1.41217C16.8003 1.16192 16.6393 0.944567 16.4245 0.790829C16.2097 0.637091 15.9521 0.554743 15.6879 0.555424H10.6483C10.3735 0.541084 10.1016 0.617067 9.87414 0.771769C9.64663 0.926471 9.47602 1.15139 9.38836 1.41217L8.68281 3.71781C8.58453 4.00946 8.38291 4.25505 8.11599 4.40824C7.84906 4.56143 7.5353 4.61163 7.2339 4.54935L4.80227 4.07058C4.55602 4.03578 4.30498 4.07464 4.08078 4.18226C3.85658 4.28988 3.66923 4.46144 3.54236 4.67534L1.02253 9.03464C0.885404 9.26224 0.823746 9.52738 0.846375 9.79213C0.869003 10.0569 0.97476 10.3077 1.14852 10.5087L2.74861 12.323C2.9506 12.5529 3.062 12.8485 3.062 13.1546C3.062 13.4606 2.9506 13.7562 2.74861 13.9861L1.14852 15.8004C0.97476 16.0014 0.869003 16.2522 0.846375 16.517C0.823746 16.7817 0.885404 17.0469 1.02253 17.2745L3.54236 21.6338C3.67477 21.8637 3.87639 22.0459 4.11846 22.1545C4.36053 22.2631 4.6307 22.2925 4.89047 22.2385L7.2591 21.7598C7.5605 21.6975 7.87426 21.7477 8.14119 21.9009C8.40811 22.0541 8.60973 22.2997 8.708 22.5913L9.47655 24.8969C9.56421 25.1577 9.73483 25.3826 9.96233 25.5373C10.1898 25.692 10.4617 25.768 10.7365 25.7537H15.7761C16.0403 25.7544 16.2979 25.672 16.5127 25.5183C16.7275 25.3645 16.8885 25.1472 16.973 24.8969L17.7416 22.5913C17.8399 22.2997 18.0415 22.0541 18.3084 21.9009C18.5753 21.7477 18.8891 21.6975 19.1905 21.7598L21.5591 22.2385C21.8189 22.2925 22.0891 22.2631 22.3311 22.1545C22.5732 22.0459 22.7748 21.8637 22.9072 21.6338L25.4271 17.2745C25.5608 17.0443 25.6182 16.7777 25.5911 16.5128C25.5639 16.248 25.4536 15.9986 25.2759 15.8004L23.575 13.9861ZM21.6977 15.6744L22.7056 16.8083L21.093 19.6053L19.6063 19.3029C18.6988 19.1174 17.7549 19.2716 16.9536 19.7361C16.1524 20.2006 15.5495 20.9431 15.2596 21.8228L14.7808 23.2339H11.5554L11.1018 21.7976C10.8119 20.9179 10.209 20.1754 9.40777 19.7109C8.60649 19.2464 7.66255 19.0923 6.75514 19.2777L5.26844 19.5801L3.63055 16.7957L4.63848 15.6618C5.2583 14.9688 5.60097 14.0717 5.60097 13.142C5.60097 12.2122 5.2583 11.3151 4.63848 10.6221L3.63055 9.48821L5.24324 6.7164L6.72994 7.01878C7.63736 7.20427 8.58129 7.05013 9.38257 6.58562C10.1838 6.12111 10.7867 5.37857 11.0766 4.49895L11.5554 3.07525H14.7808L15.2596 4.51155C15.5495 5.39117 16.1524 6.13371 16.9536 6.59822C17.7549 7.06273 18.6988 7.21687 19.6063 7.03138L21.093 6.729L22.7056 9.52601L21.6977 10.6599C21.0848 11.3513 20.7464 12.2432 20.7464 13.1672C20.7464 14.0911 21.0848 14.983 21.6977 15.6744ZM13.1681 8.1149C12.1713 8.1149 11.197 8.41048 10.3682 8.96424C9.53945 9.518 8.8935 10.3051 8.51206 11.226C8.13062 12.1468 8.03082 13.1601 8.22528 14.1377C8.41973 15.1153 8.89972 16.0133 9.60452 16.7181C10.3093 17.4229 11.2073 17.9029 12.1849 18.0974C13.1625 18.2918 14.1758 18.192 15.0967 17.8106C16.0176 17.4292 16.8047 16.7832 17.3584 15.9544C17.9122 15.1257 18.2078 14.1513 18.2078 13.1546C18.2078 11.818 17.6768 10.5361 16.7317 9.59098C15.7866 8.64587 14.5047 8.1149 13.1681 8.1149ZM13.1681 15.6744C12.6697 15.6744 12.1825 15.5266 11.7682 15.2497C11.3538 14.9728 11.0308 14.5793 10.8401 14.1189C10.6494 13.6584 10.5995 13.1518 10.6967 12.663C10.7939 12.1742 11.0339 11.7252 11.3863 11.3728C11.7387 11.0204 12.1877 10.7804 12.6765 10.6831C13.1653 10.5859 13.672 10.6358 14.1324 10.8265C14.5928 11.0173 14.9864 11.3402 15.2633 11.7546C15.5401 12.169 15.6879 12.6562 15.6879 13.1546C15.6879 13.8229 15.4224 14.4638 14.9499 14.9363C14.4773 15.4089 13.8364 15.6744 13.1681 15.6744Z" fill="white"/>
</svg>
