<svg width="27" height="25" viewBox="0 0 27 25" fill="none" xmlns="http://www.w3.org/2000/svg">
<path d="M26.1537 14.0439H14.5841L22.2892 21.7491C22.5837 22.0435 23.0684 22.0674 23.3711 21.7822C25.258 20.0045 26.556 17.6081 26.9368 14.9142C27.0021 14.453 26.6194 14.0439 26.1537 14.0439ZM25.3819 10.8844C24.9801 5.05986 20.3257 0.405478 14.5012 0.0037162C14.0565 -0.027001 13.6821 0.347944 13.6821 0.793587V11.7036H24.5925C25.0382 11.7036 25.4126 11.3291 25.3819 10.8844ZM11.3417 14.0439V2.47426C11.3417 2.00862 10.9326 1.62588 10.4719 1.69121C4.66144 2.51229 0.220123 7.58842 0.426854 13.6719C0.639437 19.9197 6.01885 25.0431 12.2696 24.9646C14.7269 24.9339 16.9976 24.1421 18.8645 22.8178C19.2497 22.5448 19.275 21.9777 18.941 21.6437L11.3417 14.0439Z" fill="white"/>
</svg>
