<svg width="40" height="40" viewBox="0 0 40 40" fill="none" xmlns="http://www.w3.org/2000/svg">
<path d="M40 1.66667V10C40 10.442 39.8244 10.8659 39.5118 11.1785C39.1993 11.4911 38.7754 11.6667 38.3333 11.6667C37.8913 11.6667 37.4674 11.4911 37.1548 11.1785C36.8423 10.8659 36.6667 10.442 36.6667 10V3.33333H30C29.558 3.33333 29.134 3.15774 28.8215 2.84518C28.5089 2.53262 28.3333 2.10869 28.3333 1.66667C28.3333 1.22464 28.5089 0.800716 28.8215 0.488156C29.134 0.175595 29.558 0 30 0H38.3333C38.7754 0 39.1993 0.175595 39.5118 0.488156C39.8244 0.800716 40 1.22464 40 1.66667ZM10 36.6667H3.33333V30C3.33333 29.558 3.15774 29.134 2.84518 28.8215C2.53262 28.5089 2.10869 28.3333 1.66667 28.3333C1.22464 28.3333 0.800716 28.5089 0.488156 28.8215C0.175595 29.134 0 29.558 0 30V38.3333C0 38.7754 0.175595 39.1993 0.488156 39.5118C0.800716 39.8244 1.22464 40 1.66667 40H10C10.442 40 10.8659 39.8244 11.1785 39.5118C11.4911 39.1993 11.6667 38.7754 11.6667 38.3333C11.6667 37.8913 11.4911 37.4674 11.1785 37.1548C10.8659 36.8423 10.442 36.6667 10 36.6667ZM38.3333 28.3333C37.8913 28.3333 37.4674 28.5089 37.1548 28.8215C36.8423 29.134 36.6667 29.558 36.6667 30V36.6667H30C29.558 36.6667 29.134 36.8423 28.8215 37.1548C28.5089 37.4674 28.3333 37.8913 28.3333 38.3333C28.3333 38.7754 28.5089 39.1993 28.8215 39.5118C29.134 39.8244 29.558 40 30 40H38.3333C38.7754 40 39.1993 39.8244 39.5118 39.5118C39.8244 39.1993 40 38.7754 40 38.3333V30C40 29.558 39.8244 29.134 39.5118 28.8215C39.1993 28.5089 38.7754 28.3333 38.3333 28.3333ZM1.66667 11.6667C2.10869 11.6667 2.53262 11.4911 2.84518 11.1785C3.15774 10.8659 3.33333 10.442 3.33333 10V3.33333H10C10.442 3.33333 10.8659 3.15774 11.1785 2.84518C11.4911 2.53262 11.6667 2.10869 11.6667 1.66667C11.6667 1.22464 11.4911 0.800716 11.1785 0.488156C10.8659 0.175595 10.442 0 10 0H1.66667C1.22464 0 0.800716 0.175595 0.488156 0.488156C0.175595 0.800716 0 1.22464 0 1.66667V10C0 10.442 0.175595 10.8659 0.488156 11.1785C0.800716 11.4911 1.22464 11.6667 1.66667 11.6667ZM28.3333 31.6667H11.6667C10.7826 31.6667 9.93477 31.3155 9.30964 30.6904C8.68452 30.0652 8.33333 29.2174 8.33333 28.3333V11.6667C8.33333 10.7826 8.68452 9.93477 9.30964 9.30964C9.93477 8.68452 10.7826 8.33333 11.6667 8.33333H28.3333C29.2174 8.33333 30.0652 8.68452 30.6904 9.30964C31.3155 9.93477 31.6667 10.7826 31.6667 11.6667V28.3333C31.6667 29.2174 31.3155 30.0652 30.6904 30.6904C30.0652 31.3155 29.2174 31.6667 28.3333 31.6667ZM11.6667 28.3333H28.3333V11.6667H11.6667V28.3333Z" fill="white" fill-opacity="0.7"/>
</svg>
