<svg width="26" height="26" viewBox="0 0 26 26" fill="none" xmlns="http://www.w3.org/2000/svg">
<path d="M4.62063 22.2012C3.43841 21.0593 2.49544 19.6935 1.84672 18.1833C1.19801 16.6732 0.856546 15.0489 0.842264 13.4054C0.827982 11.7619 1.14117 10.132 1.76354 8.61075C2.38591 7.08955 3.30501 5.70753 4.46721 4.54533C5.62941 3.38314 7.01143 2.46404 8.53263 1.84166C10.0538 1.21929 11.6838 0.906107 13.3273 0.920389C14.9708 0.934671 16.595 1.27613 18.1052 1.92485C19.6154 2.57356 20.9812 3.51654 22.123 4.69876C24.3778 7.03326 25.6254 10.16 25.5972 13.4054C25.569 16.6509 24.2672 19.7554 21.9722 22.0504C19.6773 24.3453 16.5727 25.6471 13.3273 25.6753C10.0818 25.7035 6.95514 24.4559 4.62063 22.2012ZM20.3777 20.4559C22.2358 18.5978 23.2797 16.0777 23.2797 13.45C23.2797 10.8222 22.2358 8.30213 20.3777 6.44405C18.5197 4.58596 15.9996 3.5421 13.3718 3.5421C10.7441 3.5421 8.224 4.58596 6.36592 6.44405C4.50784 8.30213 3.46398 10.8222 3.46398 13.45C3.46398 16.0777 4.50784 18.5978 6.36592 20.4559C8.224 22.3139 10.7441 23.3578 13.3718 23.3578C15.9996 23.3578 18.5197 22.3139 20.3777 20.4559ZM12.134 7.26099H14.6096V14.6877H12.134V7.26099ZM12.134 17.1633H14.6096V19.6389H12.134V17.1633Z" fill="white"/>
</svg>
